<svg width="40" height="40" viewBox="0 0 40 40" xmlns="http://www.w3.org/2000/svg">
<g id="Bold / Essentional, UI / Add Square" clip-path="url(#clip0_911_122)">
<path id="Vector" fill-rule="evenodd" clip-rule="evenodd" d="M20 40C10.5719 40 5.85786 40 2.92893 37.0711C0 34.1421 0 29.4281 0 20C0 10.5719 0 5.85786 2.92893 2.92893C5.85786 0 10.5719 0 20 0C29.4281 0 34.1421 0 37.0711 2.92893C40 5.85786 40 10.5719 40 20C40 29.4281 40 34.1421 37.0711 37.0711C34.1421 40 29.4281 40 20 40ZM20 12.5C20.8284 12.5 21.5 13.1716 21.5 14V18.5H26C26.8284 18.5 27.5 19.1716 27.5 20C27.5 20.8285 26.8284 21.5 26 21.5H21.5L21.5 26C21.5 26.8284 20.8284 27.5 20 27.5C19.1716 27.5 18.5 26.8284 18.5 26V21.5H14C13.1716 21.5 12.5 20.8285 12.5 20C12.5 19.1716 13.1716 18.5 14 18.5H18.5L18.5 14C18.5 13.1716 19.1716 12.5 20 12.5Z" />
</g>
<defs>
<clipPath id="clip0_911_122">
<rect width="40" height="40" fill="white"/>
</clipPath>
</defs>
</svg>
