<svg width="24" height="25" viewBox="0 0 24 25" xmlns="http://www.w3.org/2000/svg">
<path d="M8.35179 20.7418C9.19288 21.811 10.5142 22.5 12 22.5C13.4858 22.5 14.8071 21.811 15.6482 20.7418C13.2264 21.07 10.7736 21.07 8.35179 20.7418Z"/>
<path fill-rule="evenodd" clip-rule="evenodd" d="M18.7491 10.2041V9.5C18.7491 5.63401 15.7274 2.5 12 2.5C8.27256 2.5 5.25087 5.63401 5.25087 9.5V10.2041C5.25087 11.0491 5.00972 11.8752 4.5578 12.5782L3.45036 14.3012C2.43882 15.8749 3.21105 18.0139 4.97036 18.5116C9.57274 19.8134 14.4273 19.8134 19.0296 18.5116C20.789 18.0139 21.5612 15.8749 20.5496 14.3012L19.4422 12.5782C18.9903 11.8752 18.7491 11.0491 18.7491 10.2041ZM12 5.75C12.4142 5.75 12.75 6.08579 12.75 6.5V10.5C12.75 10.9142 12.4142 11.25 12 11.25C11.5858 11.25 11.25 10.9142 11.25 10.5V6.5C11.25 6.08579 11.5858 5.75 12 5.75Z"/>
</svg>
