<svg width="20" height="21" viewBox="0 0 20 21" fill="none" xmlns="http://www.w3.org/2000/svg">
<g id="brain 1" clip-path="url(#clip0_738_2857)">
<path id="Vector" d="M7.51667 0.802734H7.5C5.91667 0.802734 4.59167 1.91107 4.25 3.38607C2.775 3.72773 1.66667 5.05273 1.66667 6.63607V6.65273C0.625 7.43607 0 8.66107 0 9.9694C0 10.7111 0.2 11.4194 0.575 12.0527C0.2 12.6861 0 13.3944 0 14.1361C0 15.5444 0.716667 16.8361 1.89167 17.6111C2.49167 19.5111 4.23333 20.8027 6.25 20.8027C6.60833 20.8027 6.95833 20.7611 7.29167 20.6861C8.4 20.4277 9.16667 19.4027 9.16667 18.2611V2.45273C9.16667 1.5444 8.43333 0.802734 7.51667 0.802734ZM10.8333 2.45273V18.2611C10.8333 19.4027 11.6 20.4277 12.7083 20.6861C13.0417 20.7611 13.3917 20.8027 13.75 20.8027C15.7667 20.8027 17.5083 19.5027 18.1083 17.6111C19.2833 16.8444 20 15.5444 20 14.1361C20 13.3944 19.8 12.6861 19.425 12.0527C19.8 11.4194 20 10.7111 20 9.9694C20 8.66107 19.375 7.43607 18.3333 6.65273V6.63607C18.3333 5.05273 17.225 3.72773 15.75 3.38607C15.4083 1.91107 14.0833 0.802734 12.5 0.802734H12.4833C11.575 0.802734 10.8333 1.5444 10.8333 2.45273Z" fill="#73D485"/>
</g>
<defs>
<clipPath id="clip0_738_2857">
<rect width="20" height="20" fill="white" transform="translate(0 0.802734)"/>
</clipPath>
</defs>
</svg>
