<svg width="16" height="16" viewBox="0 0 16 16" fill="none" xmlns="http://www.w3.org/2000/svg">
<path fill-rule="evenodd" clip-rule="evenodd" d="M2.00623 1.83929C3.40629 0.439236 5.76891 0.545667 6.74375 2.29244L7.2846 3.26154C7.9212 4.40223 7.64991 5.84146 6.71799 6.78477C6.70558 6.80177 6.6398 6.89755 6.63161 7.0649C6.62115 7.2785 6.69701 7.77248 7.46237 8.53784C8.22748 9.30294 8.72139 9.37899 8.93508 9.3686C9.10256 9.36045 9.19842 9.29463 9.21545 9.2822C10.1588 8.35029 11.598 8.07901 12.7387 8.71561L13.7078 9.25645C15.4545 10.2313 15.561 12.5939 14.1609 13.994C13.412 14.7429 12.4163 15.4083 11.2461 15.4526C9.51199 15.5184 6.63263 15.0706 3.78114 12.2191C0.929657 9.36758 0.481834 6.48821 0.547574 4.75411C0.591935 3.58394 1.25735 2.58818 2.00623 1.83929ZM5.65223 2.9016C5.15305 2.00715 3.81164 1.80165 2.89011 2.72318C2.24399 3.3693 1.82393 4.08248 1.79668 4.80146C1.74185 6.24758 2.09889 8.76904 4.66503 11.3352C7.23117 13.9013 9.75263 14.2584 11.1987 14.2035C11.9177 14.1763 12.6309 13.7562 13.277 13.1101C14.1986 12.1886 13.9931 10.8472 13.0986 10.348L12.1295 9.80713C11.5267 9.4707 10.6799 9.58546 10.0855 10.1799L10.0853 10.1801C10.0269 10.2384 9.65537 10.585 8.99582 10.6171C8.32063 10.65 7.50335 10.3466 6.57849 9.42172C5.65331 8.49655 5.35004 7.67904 5.38311 7.00377C5.4154 6.34417 5.76225 5.97284 5.82029 5.91479L5.82032 5.91477C6.41475 5.32033 6.52951 4.47355 6.19307 3.87071L5.65223 2.9016Z" fill="#201751"/>
</svg>
