<svg width="20" height="21" viewBox="0 0 20 21" fill="none" xmlns="http://www.w3.org/2000/svg">
<g id="calories 1" clip-path="url(#clip0_462_3538)">
<g id="Group">
<path id="Vector" d="M10.0009 14.1754C9.40984 14.6253 8.18945 15.7379 8.18945 17.2537C8.18945 18.2545 9.00164 19.0687 10 19.0687C10.9984 19.0687 11.8105 18.2545 11.8105 17.2537C11.8105 15.8181 10.5895 14.6533 10.0009 14.1754Z" fill="#EE862A"/>
<path id="Vector_2" d="M14.2432 3.72437C14.0237 3.47605 13.6447 3.46101 13.4056 3.68421L10.6483 6.25761V0.868352C10.6483 0.417219 10.1044 0.0801486 9.69705 0.326555C9.61994 0.373195 7.7876 1.4921 5.93615 3.52402C3.68502 5.99464 2.15186 9.0028 2.15186 12.3764C2.15186 16.7143 5.67244 20.2434 9.99978 20.2434C8.35525 20.2434 7.01736 18.9022 7.01736 17.2537C7.01736 14.59 9.60361 13.0127 9.71369 12.9468C9.90666 12.8315 10.1483 12.8369 10.3359 12.9605C10.444 13.0318 12.9822 14.7342 12.9822 17.2537C12.9822 18.9022 11.6443 20.2434 9.99978 20.2434C14.3271 20.2434 17.8477 16.7143 17.8477 12.3764C17.8477 9.10085 16.4023 6.16495 14.2432 3.72437Z" fill="#EE862A"/>
</g>
</g>
<defs>
<clipPath id="clip0_462_3538">
<rect width="20" height="20" fill="white" transform="translate(0 0.243408)"/>
</clipPath>
</defs>
</svg>
