<svg width="74" height="75" viewBox="0 0 74 75" fill="none" xmlns="http://www.w3.org/2000/svg">
<rect y="0.795898" width="74" height="74" rx="37" fill="#E03616" fill-opacity="0.05"/>
<path d="M45.7552 38.6045C40.4338 38.6045 36.1056 42.9091 36.1056 48.2007C36.1056 53.4915 40.4338 57.7961 45.7552 57.7961C51.0767 57.7961 55.4062 53.4915 55.4062 48.2007C55.4062 42.9091 51.0767 38.6045 45.7552 38.6045ZM38.9789 48.2007C38.9789 44.4848 42.0191 41.4616 45.7552 41.4616C49.4927 41.4616 52.5329 44.4848 52.5329 48.2007C52.5329 51.9165 49.4927 54.939 45.7552 54.939C42.0191 54.939 38.9789 51.9165 38.9789 48.2007Z" fill="#E03616"/>
<path d="M25.0867 53.4106H32.3274C33.1215 53.4106 33.7641 52.7709 33.7641 51.982C33.7641 51.1931 33.1215 50.5534 32.3274 50.5534H25.0867C23.0903 50.5534 21.4671 48.9316 21.4671 46.9387V31.9477H48.1164V34.853C48.1164 35.642 48.7589 36.2816 49.553 36.2816C50.3471 36.2816 50.9897 35.642 50.9897 34.853V27.6529C50.9897 24.085 48.0757 21.1818 44.4953 21.1818H42.7795V19.2245C42.7795 18.4355 42.1369 17.7959 41.3429 17.7959C40.5488 17.7959 39.9062 18.4355 39.9062 19.2245V21.1818H29.6744V19.2245C29.6744 18.4355 29.0319 17.7959 28.2378 17.7959C27.4437 17.7959 26.8011 18.4355 26.8011 19.2245V21.1818H25.0867C21.5064 21.1818 18.5938 24.085 18.5938 27.6529V46.9387C18.5938 50.5074 21.5064 53.4106 25.0867 53.4106ZM25.0867 24.0389H44.4953C46.4917 24.0389 48.1164 25.66 48.1164 27.6529V29.0906H21.4671V27.6529C21.4671 25.66 23.0903 24.0389 25.0867 24.0389Z" fill="#E03616"/>
<path d="M34.8037 36.811C34.011 36.811 33.3741 37.4507 33.3741 38.2396C33.3741 39.0285 34.025 39.6682 34.8177 39.6682C35.6118 39.6682 36.2543 39.0285 36.2543 38.2396C36.2543 37.4507 35.6118 36.811 34.8177 36.811H34.8037Z" fill="#E03616"/>
<path d="M27.3876 36.811H27.3736C26.5809 36.811 25.9439 37.4507 25.9439 38.2396C25.9439 39.0285 26.5949 39.6682 27.3876 39.6682C28.1817 39.6682 28.8242 39.0285 28.8242 38.2396C28.8242 37.4507 28.1817 36.811 27.3876 36.811Z" fill="#E03616"/>
<path d="M27.3876 42.8315H27.3736C26.5809 42.8315 25.9439 43.4712 25.9439 44.2601C25.9439 45.049 26.5949 45.6887 27.3876 45.6887C28.1817 45.6887 28.8242 45.049 28.8242 44.2601C28.8242 43.4712 28.1817 42.8315 27.3876 42.8315Z" fill="#E03616"/>
<path d="M48.8038 45.17C48.2426 44.612 47.3335 44.612 46.7723 45.17L45.7559 46.1806L44.7394 45.17C44.1783 44.612 43.2691 44.612 42.708 45.17C42.1468 45.728 42.1468 46.6328 42.708 47.1901L43.7242 48.2005L42.708 49.2109C42.1468 49.7682 42.1468 50.6729 42.708 51.231C42.9885 51.51 43.3561 51.6495 43.7237 51.6495C44.0913 51.6495 44.4589 51.51 44.7394 51.231L45.7559 50.2204L46.7723 51.231C47.0529 51.51 47.4205 51.6495 47.7881 51.6495C48.1557 51.6495 48.5232 51.51 48.8038 51.231C49.365 50.6729 49.365 49.7682 48.8038 49.2109L47.7876 48.2005L48.8038 47.1901C49.365 46.6328 49.365 45.728 48.8038 45.17Z" fill="#E03616"/>
</svg>
