<svg width="43" height="43" viewBox="0 0 43 43" fill="none" xmlns="http://www.w3.org/2000/svg">
<rect x="0.585449" y="0.448853" width="42" height="42" rx="21" fill="#201751"/>
<path d="M28.2521 17.4489C28.2521 18.5534 27.3567 19.4489 26.2521 19.4489C25.1475 19.4489 24.2521 18.5534 24.2521 17.4489C24.2521 16.3443 25.1475 15.4489 26.2521 15.4489C27.3567 15.4489 28.2521 16.3443 28.2521 17.4489Z" fill="#FEFEFE"/>
<path fill-rule="evenodd" clip-rule="evenodd" d="M22.9188 16.7822H20.2521C17.7379 16.7822 16.4809 16.7822 15.6998 17.5632C14.9188 18.3443 14.9188 19.6014 14.9188 22.1155C14.9188 24.6297 14.9188 25.8868 15.6998 26.6678C16.4809 27.4489 17.7379 27.4489 20.2521 27.4489H22.9188C25.4329 27.4489 26.69 27.4489 27.471 26.6678C28.2521 25.8868 28.2521 24.6297 28.2521 22.1155C28.2521 21.1466 28.2521 20.3644 28.2074 19.7242C27.6823 20.1759 26.9991 20.4489 26.2521 20.4489C25.933 20.4489 25.6255 20.399 25.337 20.3067L24.4412 21.0532C23.8503 21.5457 23.3714 21.9448 22.9486 22.2167C22.5083 22.4999 22.0795 22.6788 21.5854 22.6788C21.0914 22.6788 20.6625 22.4999 20.2222 22.2167C19.7995 21.9448 19.3206 21.5457 18.7297 21.0532L17.2653 19.833C17.0532 19.6562 17.0245 19.3409 17.2013 19.1288C17.3781 18.9166 17.6934 18.888 17.9055 19.0647L19.3448 20.2641C19.9668 20.7824 20.3986 21.1411 20.7632 21.3756C21.1161 21.6026 21.3554 21.6788 21.5854 21.6788C21.8155 21.6788 22.0548 21.6026 22.4077 21.3756C22.7723 21.1411 23.2041 20.7824 23.8261 20.2641L24.3857 19.7978C23.6949 19.2481 23.2521 18.4002 23.2521 17.4489C23.2521 17.2198 23.2778 16.9967 23.3264 16.7823C23.1943 16.7822 23.0585 16.7822 22.9188 16.7822Z" fill="#FEFEFE"/>
</svg>
