<svg width="18" height="18" viewBox="0 0 18 18" fill="none" xmlns="http://www.w3.org/2000/svg">
<path d="M9.00002 0.666504C4.40488 0.666504 0.666687 4.4047 0.666687 8.99984C0.666687 13.595 4.40488 17.3332 9.00002 17.3332C13.5952 17.3332 17.3334 13.595 17.3334 8.99984C17.3334 4.4047 13.5952 0.666504 9.00002 0.666504ZM9.00002 15.9443C5.17085 15.9443 2.05558 12.829 2.05558 8.99984C2.05558 5.17067 5.17085 2.05539 9.00002 2.05539C12.8292 2.05539 15.9445 5.17067 15.9445 8.99984C15.9445 12.829 12.8292 15.9443 9.00002 15.9443ZM11.7778 10.3887C11.7778 11.5373 10.8431 12.4721 9.69447 12.4721V13.1665C9.69447 13.5505 9.38405 13.8609 9.00002 13.8609C8.61599 13.8609 8.30558 13.5505 8.30558 13.1665V12.4721H8.11947C7.37849 12.4721 6.68683 12.0734 6.3153 11.4311C6.12294 11.0984 6.23683 10.6741 6.56808 10.4825C6.90072 10.2887 7.32572 10.404 7.51669 10.7353C7.64099 10.9505 7.87155 11.0832 8.11877 11.0832H9.69377C10.0771 11.0832 10.3882 10.7721 10.3882 10.3887C10.3882 10.1262 10.2 9.904 9.94099 9.86095L7.82919 9.50887C6.89724 9.354 6.22155 8.55539 6.22155 7.61095C6.22155 6.46234 7.15627 5.52762 8.30488 5.52762V4.83317C8.30488 4.44984 8.6153 4.13873 8.99933 4.13873C9.38335 4.13873 9.69377 4.44984 9.69377 4.83317V5.52762H9.87988C10.6209 5.52762 11.3125 5.92692 11.684 6.56928C11.8764 6.90123 11.7625 7.32553 11.4313 7.51789C11.0979 7.71025 10.6736 7.59637 10.4827 7.26442C10.3584 7.04984 10.1278 6.9172 9.88058 6.9172H8.30558C7.92224 6.9172 7.61113 7.229 7.61113 7.61164C7.61113 7.87414 7.79933 8.09637 8.05835 8.13942L10.1702 8.4915C11.1021 8.64637 11.7778 9.44498 11.7778 10.3894V10.3887Z" fill="#201751"/>
</svg>
