<svg width="24" height="24" viewBox="0 0 24 24" fill="none" xmlns="http://www.w3.org/2000/svg">
<g id="envelope-solid 2">
<path id="Vector" fill-rule="evenodd" clip-rule="evenodd" d="M1.60603 6.08087C2.11366 5.86331 2.70154 6.09846 2.9191 6.60609L1.99995 7.00001C2.9191 6.60609 2.91924 6.60642 2.9191 6.60609L2.91858 6.60489C2.9183 6.60424 2.91851 6.60472 2.91858 6.60489L2.9225 6.61376C2.92651 6.62277 2.93339 6.63809 2.94319 6.65929C2.96278 6.70171 2.99397 6.76759 3.03696 6.85358C3.12302 7.0257 3.25594 7.27747 3.43737 7.58228C3.80137 8.1938 4.35439 9.00825 5.10775 9.81956C5.28532 10.0108 5.47324 10.2011 5.67173 10.3881C5.68003 10.3956 5.68823 10.4033 5.69633 10.4112C7.18102 11.8014 9.25227 13 12 13C13.2089 13 14.2783 12.7692 15.2209 12.3982C16.4469 11.9156 17.4745 11.1891 18.3156 10.3997C19.2652 9.50839 19.9627 8.55005 20.4232 7.81101C20.6526 7.44292 20.8207 7.13319 20.9299 6.9191C20.9844 6.81217 21.0241 6.72944 21.0491 6.67562C21.0617 6.64872 21.0706 6.62908 21.0758 6.61729L21.0808 6.60609C21.2985 6.09874 21.8864 5.86337 22.3939 6.08087C22.9015 6.29842 23.1367 6.8863 22.9191 7.39393L22 7.00001C22.9191 7.39393 22.9192 7.3937 22.9191 7.39393L22.9169 7.39895L22.9134 7.40718L22.9019 7.43302C22.8924 7.45435 22.879 7.48378 22.8618 7.52072C22.8274 7.59458 22.7774 7.69856 22.7115 7.82775C22.5799 8.08591 22.384 8.44609 22.1206 8.86869C21.718 9.51484 21.152 10.3162 20.4096 11.1243L21.2071 11.9217C21.5976 12.3123 21.5976 12.9454 21.2071 13.336C20.8165 13.7265 20.1834 13.7265 19.7928 13.336L18.9527 12.4958C18.3884 12.9515 17.757 13.3814 17.0558 13.7522L17.8381 14.9546C18.1393 15.4175 18.0083 16.037 17.5453 16.3382C17.0824 16.6394 16.463 16.5083 16.1618 16.0454L15.1763 14.5309C14.4973 14.739 13.772 14.8865 13 14.9557V16.5C13 17.0523 12.5522 17.5 12 17.5C11.4477 17.5 11 17.0523 11 16.5V14.9558C10.2253 14.8866 9.50014 14.7388 8.82334 14.5313L7.83814 16.0454C7.53693 16.5083 6.91748 16.6394 6.45457 16.3382C5.99165 16.037 5.86056 15.4175 6.16177 14.9546L6.94417 13.7522C6.24405 13.3816 5.61245 12.9518 5.04746 12.4956L4.20706 13.336C3.81654 13.7265 3.18337 13.7265 2.79285 13.336C2.40232 12.9454 2.40232 12.3123 2.79285 11.9217L3.59029 11.1243C2.74529 10.2045 2.12772 9.29225 1.71879 8.60525C1.5096 8.25381 1.35345 7.9587 1.2481 7.74801C1.19539 7.64259 1.15529 7.55808 1.12752 7.49796C1.11363 7.46789 1.10282 7.4439 1.09505 7.42643L1.08566 7.40514L1.08267 7.39826L1.0816 7.39577L1.08117 7.39477C1.08098 7.39434 1.08081 7.39393 1.99995 7.00001L1.08117 7.39477C0.863613 6.88714 1.0984 6.29842 1.60603 6.08087Z" fill="#656565"/>
</g>
</svg>
