<svg width="20" height="25" viewBox="0 0 20 25" xmlns="http://www.w3.org/2000/svg">
<g id="icon_50_">
<path id="Vector" d="M17.5313 24.3931H2.68667C1.55153 24.3931 0.631714 23.4272 0.631714 22.2351V21.9364C0.631714 16.9977 4.44389 12.9916 9.14929 12.9916H11.0713C15.7741 12.9916 19.5889 16.995 19.5889 21.9364V22.2351C19.5862 23.4272 18.6664 24.3931 17.5313 24.3931Z" />
<path id="Vector_2" d="M17.1086 11.3891C16.218 10.814 14.6655 9.31479 14.7771 5.86697C14.7957 5.69109 14.8064 5.50963 14.8064 5.32817C15.2184 0.0489564 10.1116 0.397926 10.1116 0.397926C10.1116 0.397926 5.00745 0.0461646 5.41684 5.32817C5.41684 5.50963 5.42748 5.69109 5.44609 5.86697C5.55508 9.31479 4.00523 10.8168 3.11466 11.3891C2.88071 11.5398 2.91527 11.9028 3.17314 11.9977C4.36411 12.436 6.95075 12.9217 9.15192 10.1523C9.46296 10.2193 9.78197 10.2556 10.1116 10.2556C10.4413 10.2556 10.7629 10.2193 11.0713 10.1523C13.2725 12.9217 15.8591 12.436 17.0501 11.9977C17.3079 11.9055 17.3425 11.5398 17.1086 11.3891Z" />
</g>
</svg>
