<svg width="13" height="13" viewBox="0 0 13 13" fill="none" xmlns="http://www.w3.org/2000/svg">
<g id="grim-reaper_8611435 1" clip-path="url(#clip0_738_6032)">
<g id="Group">
<g id="Group_2">
<g id="Group_3">
<path id="Vector" d="M10.4761 9.26843C10.4761 9.46228 10.3184 9.62 10.1245 9.62C9.93036 9.62 9.77295 9.7774 9.77295 9.97156C9.77295 10.1657 9.93036 10.3231 10.1245 10.3231C10.7061 10.3231 11.1792 9.84999 11.1792 9.26843C11.1792 9.07428 11.0218 8.91687 10.8276 8.91687C10.6335 8.91687 10.4761 9.07428 10.4761 9.26843ZM2.99951 3.19812C3.19367 3.19812 3.35107 3.04071 3.35107 2.84656C3.35107 1.8773 4.13963 1.08875 5.10889 1.08875C5.30304 1.08875 5.46045 0.931339 5.46045 0.737183C5.46045 0.543026 5.30304 0.38562 5.10889 0.38562C3.75193 0.38562 2.64795 1.4896 2.64795 2.84656C2.64795 3.04071 2.80536 3.19812 2.99951 3.19812ZM10.3409 6.1271C10.2548 6.04109 10.1566 5.97176 10.05 5.92074L10.3408 5.6299C10.7521 5.21869 10.7521 4.54957 10.3408 4.13834C10.2452 4.04269 10.1343 3.96795 10.0138 3.9158C10.2396 3.52196 10.1947 2.99782 9.84366 2.6468C9.49716 2.30028 8.97413 2.24731 8.57414 2.47692C8.52291 2.358 8.44908 2.24658 8.3521 2.1496C7.93993 1.7374 7.27273 1.73738 6.86056 2.1496L3.29496 5.71521C3.14086 5.86936 2.96276 5.8125 2.91183 5.79141C2.86093 5.77034 2.6948 5.68458 2.6948 5.46661V4.38694C2.6948 4.10522 2.58509 3.84035 2.38587 3.64118C1.97464 3.22995 1.30552 3.22997 0.894332 3.64118C0.69516 3.84035 0.585449 4.10522 0.585449 4.38696V7.64642C0.585449 8.71177 1.00032 9.71335 1.75364 10.4667L1.79546 10.5085C2.55162 11.2646 3.55545 11.6816 4.62207 11.6825H4.62558C5.69049 11.6824 6.69172 11.2678 7.4449 10.5146L10.3408 7.61864C10.7531 7.20647 10.7531 6.5393 10.3409 6.1271ZM9.84368 7.12146L6.94775 10.0174C5.66602 11.2991 3.57774 11.2964 2.29264 10.0113L2.25082 9.96949C1.63029 9.34896 1.28857 8.52394 1.28857 7.64642V4.38696C1.28857 4.29305 1.32516 4.20478 1.39156 4.13836C1.52867 4.0013 1.75168 4.0013 1.88874 4.13836C1.95514 4.20476 1.99172 4.29305 1.99172 4.38694V5.46661C1.99172 5.90128 2.24121 6.27467 2.64279 6.441C3.04439 6.60739 3.48483 6.51973 3.79217 6.21237L7.35781 2.64678C7.49518 2.50939 7.71757 2.50941 7.85496 2.64678C7.992 2.78382 7.99203 3.00675 7.85508 3.14384C7.85503 3.14386 7.85489 3.14403 7.85487 3.14405L4.87184 6.1271C4.73454 6.2644 4.73454 6.48699 4.87184 6.62428C5.00911 6.76158 5.23172 6.76158 5.36902 6.62428L8.84935 3.14398C8.98671 3.00659 9.20914 3.00661 9.3465 3.144C9.48392 3.28142 9.48389 3.50377 9.3465 3.64118L5.8662 7.12146C5.7289 7.25876 5.7289 7.48135 5.8662 7.61864C6.00347 7.75594 6.22608 7.75594 6.36338 7.61864L9.3465 4.63554C9.48389 4.49815 9.70629 4.49813 9.84368 4.63554C9.98077 4.77263 9.98077 4.99566 9.84368 5.13275L6.86058 8.11585C6.72329 8.25314 6.72329 8.47573 6.86058 8.61303C6.99786 8.75032 7.22049 8.75032 7.35776 8.61303C7.35776 8.61303 9.34648 6.62431 9.3465 6.62428C9.48389 6.48689 9.70629 6.48689 9.84368 6.62428C9.98107 6.7617 9.98107 6.98403 9.84368 7.12146ZM12.2339 8.91687C12.0397 8.91687 11.8823 9.07428 11.8823 9.26843C11.8823 10.2377 11.0938 11.0262 10.1245 11.0262C9.93036 11.0262 9.77295 11.1837 9.77295 11.3778C9.77295 11.572 9.93036 11.7294 10.1245 11.7294C11.4815 11.7294 12.5854 10.6254 12.5854 9.26843C12.5854 9.07428 12.428 8.91687 12.2339 8.91687ZM5.10889 1.79187C4.52733 1.79187 4.0542 2.265 4.0542 2.84656C4.0542 3.04071 4.21161 3.19812 4.40576 3.19812C4.59992 3.19812 4.75732 3.04071 4.75732 2.84656C4.75732 2.65271 4.91504 2.495 5.10889 2.495C5.30304 2.495 5.46045 2.33759 5.46045 2.14343C5.46045 1.94928 5.30304 1.79187 5.10889 1.79187Z" fill="#EE990A"/>
</g>
</g>
</g>
</g>
<defs>
<clipPath id="clip0_738_6032">
<rect width="12" height="12" fill="white" transform="translate(0.585449 0.0574951)"/>
</clipPath>
</defs>
</svg>
