<svg width="20" height="21" viewBox="0 0 20 21" fill="none" xmlns="http://www.w3.org/2000/svg">
<g id="heart 1" clip-path="url(#clip0_738_2873)">
<path id="Vector" d="M14.5833 2.21265C13.645 2.22724 12.7271 2.48919 11.9223 2.97204C11.1176 3.45489 10.4545 4.14154 10 4.96265C9.54554 4.14154 8.88245 3.45489 8.0777 2.97204C7.27296 2.48919 6.35505 2.22724 5.41667 2.21265C3.92079 2.27764 2.51143 2.93202 1.49649 4.03284C0.481556 5.13366 -0.0564528 6.59142 5.93206e-06 8.08765C5.93206e-06 11.8768 3.98834 16.0151 7.33334 18.821C8.08019 19.4486 9.02447 19.7927 10 19.7927C10.9755 19.7927 11.9198 19.4486 12.6667 18.821C16.0117 16.0151 20 11.8768 20 8.08765C20.0565 6.59142 19.5185 5.13366 18.5035 4.03284C17.4886 2.93202 16.0792 2.27764 14.5833 2.21265Z" fill="#E43C40"/>
</g>
<defs>
<clipPath id="clip0_738_2873">
<rect width="20" height="20" fill="white" transform="translate(0 0.615234)"/>
</clipPath>
</defs>
</svg>
