<svg width="24" height="24" viewBox="0 0 24 24"  xmlns="http://www.w3.org/2000/svg">
<g id="Outline / Essentional, UI / Home Smile Angle">
<g id="Vector">
<path d="M9.44657 15.3973C9.1138 15.1506 8.64409 15.2204 8.39743 15.5532C8.15077 15.8859 8.22058 16.3557 8.55334 16.6023C9.52575 17.3231 10.715 17.7498 12 17.7498C13.2849 17.7498 14.4742 17.3231 15.4466 16.6023C15.7793 16.3557 15.8491 15.8859 15.6025 15.5532C15.3558 15.2204 14.8861 15.1506 14.5533 15.3973C13.825 15.9371 12.9459 16.2498 12 16.2498C11.0541 16.2498 10.1749 15.9371 9.44657 15.3973Z" />
<path fill-rule="evenodd" clip-rule="evenodd" d="M11.9999 1.25C11.2748 1.25 10.6133 1.44911 9.88916 1.7871C9.18819 2.11428 8.3776 2.59716 7.36171 3.20233L5.9061 4.06943C4.78699 4.73606 3.89523 5.26727 3.22003 5.77524C2.52301 6.29963 1.99987 6.8396 1.65895 7.55072C1.31786 8.26219 1.22542 9.0068 1.25507 9.87584C1.28377 10.717 1.43093 11.7397 1.61544 13.0219L1.9078 15.0537C2.14518 16.7036 2.33356 18.0128 2.61499 19.0322C2.90511 20.0829 3.31673 20.9169 4.05953 21.5565C4.80171 22.1956 5.68972 22.4814 6.77622 22.6177C7.83142 22.75 9.16268 22.75 10.8422 22.75H13.1575C14.837 22.75 16.1683 22.75 17.2235 22.6177C18.31 22.4814 19.198 22.1956 19.9402 21.5565C20.683 20.9169 21.0947 20.0829 21.3848 19.0322C21.6662 18.0129 21.8546 16.7036 22.092 15.0537L22.3843 13.0219C22.5688 11.7396 22.716 10.717 22.7447 9.87584C22.7743 9.0068 22.6819 8.26219 22.3408 7.55072C21.9999 6.8396 21.4767 6.29963 20.7797 5.77524C20.1045 5.26727 19.2128 4.73606 18.0937 4.06943L16.6381 3.20233C15.6222 2.59716 14.8116 2.11428 14.1106 1.7871C13.3865 1.44911 12.7249 1.25 11.9999 1.25ZM8.09546 4.51121C9.15296 3.88126 9.89911 3.43781 10.5236 3.14633C11.1327 2.86203 11.5706 2.75 11.9999 2.75C12.4291 2.75 12.8671 2.86203 13.4762 3.14633C14.1007 3.43781 14.8468 3.88126 15.9043 4.51121L17.2891 5.33615C18.4535 6.02973 19.2751 6.52034 19.8779 6.9739C20.4664 7.41662 20.7887 7.78294 20.9882 8.19917C21.1876 8.61505 21.2705 9.09337 21.2456 9.82469C21.22 10.5745 21.0855 11.5163 20.8935 12.8511L20.6147 14.7884C20.3682 16.5016 20.192 17.7162 19.9389 18.633C19.6915 19.5289 19.3937 20.0476 18.9615 20.4198C18.5286 20.7926 17.9674 21.0127 17.0369 21.1294C16.0858 21.2486 14.8486 21.25 13.106 21.25H10.8938C9.15112 21.25 7.91393 21.2486 6.96287 21.1294C6.03233 21.0127 5.47117 20.7926 5.03829 20.4198C4.60602 20.0476 4.30826 19.5289 4.0609 18.633C3.80778 17.7162 3.63158 16.5016 3.38507 14.7884L3.10631 12.851C2.91425 11.5163 2.77979 10.5745 2.7542 9.82469C2.72925 9.09337 2.81217 8.61505 3.01154 8.19917C3.21109 7.78294 3.53335 7.41662 4.12181 6.9739C4.72469 6.52034 5.54631 6.02973 6.71062 5.33615L8.09546 4.51121Z" />
</g>
</g>
</svg>
