<svg width="16" height="16" viewBox="0 0 16 16" xmlns="http://www.w3.org/2000/svg">
<g clip-path="url(#clip0_738_2843)">
<path d="M8.00004 11.8333C8.27618 11.8333 8.50004 11.6094 8.50004 11.3333V7.33325C8.50004 7.05711 8.27618 6.83325 8.00004 6.83325C7.7239 6.83325 7.50004 7.05711 7.50004 7.33325V11.3333C7.50004 11.6094 7.7239 11.8333 8.00004 11.8333Z" />
<path d="M8.00004 4.66658C8.36823 4.66658 8.66671 4.96506 8.66671 5.33325C8.66671 5.70144 8.36823 5.99992 8.00004 5.99992C7.63185 5.99992 7.33337 5.70144 7.33337 5.33325C7.33337 4.96506 7.63185 4.66658 8.00004 4.66658Z" />
<path fill-rule="evenodd" clip-rule="evenodd" d="M0.833374 7.99992C0.833374 4.04188 4.042 0.833252 8.00004 0.833252C11.9581 0.833252 15.1667 4.04188 15.1667 7.99992C15.1667 11.958 11.9581 15.1666 8.00004 15.1666C4.042 15.1666 0.833374 11.958 0.833374 7.99992ZM8.00004 1.83325C4.59428 1.83325 1.83337 4.59416 1.83337 7.99992C1.83337 11.4057 4.59428 14.1666 8.00004 14.1666C11.4058 14.1666 14.1667 11.4057 14.1667 7.99992C14.1667 4.59416 11.4058 1.83325 8.00004 1.83325Z" />
</g>
<defs>
<clipPath id="clip0_738_2843">
<rect width="16" height="16" fill="white"/>
</clipPath>
</defs>
</svg>
