<svg width="24" height="24" viewBox="0 0 24 24" fill="none" xmlns="http://www.w3.org/2000/svg">
<path fill-rule="evenodd" clip-rule="evenodd" d="M9.94358 2.30737H14.0564C15.8942 2.30736 17.3498 2.30734 18.489 2.46051C19.6614 2.61814 20.6104 2.95025 21.3588 3.69862C22.1071 4.44698 22.4392 5.39593 22.5969 6.56835C22.75 7.70757 22.75 9.1632 22.75 11.001V11.1138C22.75 12.9515 22.75 14.4072 22.5969 15.5464C22.4392 16.7188 22.1071 17.6678 21.3588 18.4161C20.6104 19.1645 19.6614 19.4966 18.489 19.6542C17.3498 19.8074 15.8942 19.8074 14.0564 19.8074H9.94359C8.10583 19.8074 6.65019 19.8074 5.51098 19.6542C4.33856 19.4966 3.38961 19.1645 2.64124 18.4161C1.89288 17.6678 1.56076 16.7188 1.40314 15.5464C1.24997 14.4072 1.24998 12.9516 1.25 11.1138V11.001C1.24998 9.1632 1.24997 7.70756 1.40314 6.56835C1.56076 5.39593 1.89288 4.44698 2.64124 3.69862C3.38961 2.95025 4.33856 2.61814 5.51098 2.46051C6.65019 2.30734 8.10582 2.30736 9.94358 2.30737ZM5.71085 3.94713C4.70476 4.0824 4.12511 4.33607 3.7019 4.75928C3.27869 5.18249 3.02502 5.76213 2.88976 6.76822C2.75159 7.79589 2.75 9.15055 2.75 11.0574C2.75 12.9642 2.75159 14.3189 2.88976 15.3465C3.02502 16.3526 3.27869 16.9323 3.7019 17.3555C4.12511 17.7787 4.70476 18.0324 5.71085 18.1676C6.73851 18.3058 8.09318 18.3074 10 18.3074H14C15.9068 18.3074 17.2615 18.3058 18.2892 18.1676C19.2952 18.0324 19.8749 17.7787 20.2981 17.3555C20.7213 16.9323 20.975 16.3526 21.1102 15.3465C21.2484 14.3189 21.25 12.9642 21.25 11.0574C21.25 9.15055 21.2484 7.79589 21.1102 6.76822C20.975 5.76213 20.7213 5.18249 20.2981 4.75928C19.8749 4.33607 19.2952 4.0824 18.2892 3.94713C17.2615 3.80897 15.9068 3.80737 14 3.80737H10C8.09318 3.80737 6.73851 3.80897 5.71085 3.94713ZM5.42383 6.57724C5.68901 6.25903 6.16193 6.21603 6.48014 6.48121L8.63903 8.28029C9.57199 9.05775 10.2197 9.59579 10.7666 9.9475C11.2959 10.288 11.6549 10.4022 12 10.4022C12.3451 10.4022 12.7041 10.288 13.2334 9.9475C13.7803 9.59579 14.428 9.05775 15.361 8.28029L17.5199 6.48121C17.8381 6.21603 18.311 6.25903 18.5762 6.57724C18.8413 6.89544 18.7983 7.36837 18.4801 7.63354L16.2836 9.46395C15.3973 10.2026 14.6789 10.8013 14.0448 11.2091C13.3843 11.6339 12.7411 11.9022 12 11.9022C11.2589 11.9022 10.6157 11.6339 9.95518 11.2091C9.32112 10.8013 8.60272 10.2026 7.71636 9.46396L5.51986 7.63354C5.20165 7.36837 5.15866 6.89544 5.42383 6.57724Z" fill="#333333"/>
</svg>
