<svg width="18" height="18" viewBox="0 0 18 18" fill="none" xmlns="http://www.w3.org/2000/svg">
<g clip-path="url(#clip0_1066_2574)">
<path d="M15.8619 11.0508C16.0885 10.7978 16.2266 10.4639 16.2266 10.0986C16.2266 9.31121 15.5858 8.67041 14.7983 8.67041H12.0263C12.3009 7.83728 12.418 6.73184 12.418 6.25798V5.78223C12.418 4.73232 11.5636 3.87793 10.5137 3.87793H10.0376C9.81924 3.87793 9.62881 4.02646 9.57581 4.23848L9.3165 5.276C8.9531 6.72898 7.79941 8.33208 6.60542 8.62344C6.39626 8.09404 5.87988 7.71826 5.27686 7.71826H2.42041C2.15762 7.71826 1.94434 7.93154 1.94434 8.19434V16.7637C1.94434 17.0265 2.15762 17.2397 2.42041 17.2397H5.27686C5.84465 17.2397 6.33596 16.9068 6.56606 16.4257L8.20186 16.9709C8.73665 17.1493 9.29397 17.2397 9.85796 17.2397H13.8462C14.6336 17.2397 15.2744 16.599 15.2744 15.8115C15.2744 15.6259 15.2389 15.4481 15.1741 15.2853C15.7797 15.1199 16.2266 14.5648 16.2266 13.9072C16.2266 13.5419 16.0885 13.208 15.8619 12.9551C16.0885 12.7021 16.2266 12.3682 16.2266 12.0029C16.2266 11.6376 16.0885 11.3037 15.8619 11.0508ZM5.75293 15.8115C5.75293 16.074 5.53933 16.2876 5.27686 16.2876H2.89648V8.67041H5.27686C5.53933 8.67041 5.75293 8.88401 5.75293 9.14648V15.8115ZM13.8462 11.5269H14.7983C15.0608 11.5269 15.2744 11.7405 15.2744 12.0029C15.2744 12.2654 15.0608 12.479 14.7983 12.479H13.8462C13.5834 12.479 13.3701 12.6923 13.3701 12.9551C13.3701 13.2179 13.5834 13.4312 13.8462 13.4312H14.7983C15.0608 13.4312 15.2744 13.6448 15.2744 13.9072C15.2744 14.1697 15.0608 14.3833 14.7983 14.3833H13.8462C13.5834 14.3833 13.3701 14.5966 13.3701 14.8594C13.3701 15.1222 13.5834 15.3354 13.8462 15.3354C14.1087 15.3354 14.3223 15.549 14.3223 15.8115C14.3223 16.074 14.1087 16.2876 13.8462 16.2876H9.85796C9.39648 16.2876 8.94041 16.2136 8.50273 16.0677L6.70508 15.4684V9.57749C7.45188 9.43562 8.18281 8.96272 8.84265 8.18862C9.48694 7.43262 10.0094 6.43032 10.2401 5.50706L10.4093 4.83008H10.5137C11.0386 4.83008 11.4658 5.25728 11.4658 5.78223V6.25798C11.4658 6.89719 11.2659 8.12324 11.0101 8.67041H10.0376C9.7748 8.67041 9.56152 8.88369 9.56152 9.14648C9.56152 9.40928 9.7748 9.62256 10.0376 9.62256H14.7983C15.0608 9.62256 15.2744 9.83616 15.2744 10.0986C15.2744 10.3611 15.0608 10.5747 14.7983 10.5747H13.8462C13.5834 10.5747 13.3701 10.788 13.3701 11.0508C13.3701 11.3136 13.5834 11.5269 13.8462 11.5269Z" fill="#EE990A"/>
<path d="M4.32471 15.3354C4.58764 15.3354 4.80078 15.1223 4.80078 14.8594C4.80078 14.5964 4.58764 14.3833 4.32471 14.3833C4.06178 14.3833 3.84863 14.5964 3.84863 14.8594C3.84863 15.1223 4.06178 15.3354 4.32471 15.3354Z" fill="#EE990A"/>
<path d="M10.9897 0.989746C10.7268 0.989746 10.5137 1.2029 10.5137 1.46582V2.44971C10.5137 2.71263 10.7268 2.92578 10.9897 2.92578C11.2527 2.92578 11.4658 2.71263 11.4658 2.44971V1.46582C11.4658 1.2029 11.2527 0.989746 10.9897 0.989746Z" fill="#EE990A"/>
<path d="M8.96992 3.08907L8.29665 2.41581C8.11076 2.22989 7.80931 2.22989 7.62339 2.41581C7.43747 2.60173 7.43747 2.90315 7.62339 3.08907L8.29665 3.76234C8.48255 3.94823 8.78403 3.94826 8.96992 3.76234C9.15584 3.57641 9.15584 3.275 8.96992 3.08907Z" fill="#EE990A"/>
<path d="M14.3561 2.41581C14.1702 2.22989 13.8687 2.22989 13.6828 2.41581L13.0096 3.08904C12.8236 3.27496 12.8236 3.57638 13.0096 3.76231C13.1955 3.94823 13.4969 3.94826 13.6828 3.76234L14.3561 3.08907C14.542 2.90315 14.542 2.60173 14.3561 2.41581Z" fill="#EE990A"/>
</g>
<defs>
<clipPath id="clip0_1066_2574">
<rect width="16.25" height="16.25" fill="white" transform="translate(0.960449 0.989746)"/>
</clipPath>
</defs>
</svg>
