<svg width="24" height="24" viewBox="0 0 24 24" fill="none" xmlns="http://www.w3.org/2000/svg">
<g id="lock 1" clip-path="url(#clip0_495_556)">
<path id="Vector" d="M18.85 8.424V8.5222L18.94 8.56148C19.8039 8.93852 20.5392 9.55915 21.0561 10.3475C21.5729 11.1358 21.8488 12.0576 21.85 13.0002V18.9998C21.8485 20.2857 21.337 21.5185 20.4277 22.4277C19.5185 23.337 18.2857 23.8485 16.9998 23.85H7.00018C5.7143 23.8485 4.48154 23.337 3.57229 22.4277C2.66303 21.5185 2.15154 20.2857 2.15 18.9998L2.15 13.0001C2.15126 12.0575 2.42715 11.1357 2.94394 10.3475C3.46075 9.55915 4.19608 8.93852 5.06 8.56148L5.15 8.5222V8.424V7C5.15 5.18327 5.87169 3.44094 7.15632 2.15632C8.44094 0.871695 10.1833 0.15 12 0.15C13.8167 0.15 15.5591 0.871695 16.8437 2.15632C18.1283 3.44094 18.85 5.18327 18.85 7V8.424ZM17 8.15H17.15V8V7C17.15 5.63414 16.6074 4.32421 15.6416 3.3584C14.6758 2.39259 13.3659 1.85 12 1.85C10.6341 1.85 9.32421 2.39259 8.3584 3.3584C7.39259 4.32421 6.85 5.63414 6.85 7V8V8.15H7H17ZM19.2274 21.2274C19.8181 20.6366 20.15 19.8354 20.15 19V13C20.15 12.1646 19.8181 11.3634 19.2274 10.7726C18.6366 10.1819 17.8354 9.85 17 9.85H7C6.16457 9.85 5.36335 10.1819 4.77261 10.7726C4.18187 11.3634 3.85 12.1646 3.85 13V19C3.85 19.8354 4.18187 20.6366 4.77261 21.2274C5.36335 21.8181 6.16457 22.15 7 22.15H17C17.8354 22.15 18.6366 21.8181 19.2274 21.2274Z" fill="#333333" stroke="white" stroke-width="0.3"/>
<path id="Vector_2" d="M12 14C11.7348 14 11.4804 14.1054 11.2929 14.2929C11.1054 14.4804 11 14.7348 11 15V17C11 17.2652 11.1054 17.5196 11.2929 17.7071C11.4804 17.8946 11.7348 18 12 18C12.2652 18 12.5196 17.8946 12.7071 17.7071C12.8946 17.5196 13 17.2652 13 17V15C13 14.7348 12.8946 14.4804 12.7071 14.2929C12.5196 14.1054 12.2652 14 12 14Z" fill="#333333"/>
</g>
<defs>
<clipPath id="clip0_495_556">
<rect width="24" height="24" fill="white"/>
</clipPath>
</defs>
</svg>
