<svg width="20" height="20" viewBox="0 0 20 20" fill="none" xmlns="http://www.w3.org/2000/svg">
<g id="Linear / Map &#38; Location / Map Point Wave" clip-path="url(#clip0_1001_882)">
<path id="Vector" d="M4.16663 7.09561C4.16663 4.09733 6.7783 1.66675 9.99996 1.66675C13.2216 1.66675 15.8333 4.09733 15.8333 7.09561C15.8333 10.0704 13.9715 13.5417 11.0667 14.783C10.3895 15.0724 9.6104 15.0724 8.93324 14.783C6.02842 13.5417 4.16663 10.0704 4.16663 7.09561Z" stroke="#201751" stroke-width="1.5"/>
<path id="Vector_2" d="M11.6667 7.49992C11.6667 8.42039 10.9205 9.16659 10 9.16659C9.07957 9.16659 8.33337 8.42039 8.33337 7.49992C8.33337 6.57944 9.07957 5.83325 10 5.83325C10.9205 5.83325 11.6667 6.57944 11.6667 7.49992Z" stroke="#201751" stroke-width="1.5"/>
<path id="Vector_3" d="M17.4671 12.9167C18.0215 13.4188 18.3333 13.9847 18.3333 14.5834C18.3333 16.6545 14.6023 18.3334 9.99996 18.3334C5.39759 18.3334 1.66663 16.6545 1.66663 14.5834C1.66663 13.9847 1.97839 13.4188 2.53285 12.9167" stroke="#201751" stroke-width="1.5" stroke-linecap="round"/>
</g>
<defs>
<clipPath id="clip0_1001_882">
<rect width="20" height="20" fill="white"/>
</clipPath>
</defs>
</svg>
