<svg width="21" height="21" viewBox="0 0 21 21" fill="none" xmlns="http://www.w3.org/2000/svg">
<g id="Outline / Map &#38; Location / Map Point">
<path id="Vector" fill-rule="evenodd" clip-rule="evenodd" d="M3.20837 9.31049C3.20837 5.22797 6.46255 1.89941 10.5 1.89941C14.5375 1.89941 17.7917 5.22797 17.7917 9.31049C17.7917 11.2814 17.23 13.3977 16.2371 15.226C15.2454 17.052 13.7964 18.6388 11.9838 19.486C11.0422 19.9261 9.9579 19.9261 9.01628 19.486C7.20368 18.6388 5.75472 17.052 4.763 15.226C3.77006 13.3977 3.20837 11.2814 3.20837 9.31049ZM10.5 3.14941C7.17373 3.14941 4.45837 5.89732 4.45837 9.31049C4.45837 11.0581 4.96057 12.9706 5.86146 14.6294C6.76357 16.2905 8.03839 17.6491 9.54558 18.3536C10.1518 18.6369 10.8483 18.6369 11.4545 18.3536C12.9617 17.6491 14.2365 16.2905 15.1386 14.6294C16.0395 12.9706 16.5417 11.0581 16.5417 9.31049C16.5417 5.89732 13.8263 3.14941 10.5 3.14941ZM10.5 7.31608C9.46451 7.31608 8.62504 8.15555 8.62504 9.19108C8.62504 10.2266 9.46451 11.0661 10.5 11.0661C11.5356 11.0661 12.375 10.2266 12.375 9.19108C12.375 8.15555 11.5356 7.31608 10.5 7.31608ZM7.37504 9.19108C7.37504 7.46519 8.77415 6.06608 10.5 6.06608C12.2259 6.06608 13.625 7.46519 13.625 9.19108C13.625 10.917 12.2259 12.3161 10.5 12.3161C8.77415 12.3161 7.37504 10.917 7.37504 9.19108Z" fill="#333333"/>
</g>
</svg>
