<svg width="20" height="20" viewBox="0 0 20 20" fill="none" xmlns="http://www.w3.org/2000/svg">
<g id="plus 1">
<path id="Vector" d="M10 2.5C9.66848 2.5 9.35054 2.6317 9.11612 2.86612C8.8817 3.10054 8.75 3.41848 8.75 3.75V8.75H3.75C3.41848 8.75 3.10054 8.8817 2.86612 9.11612C2.6317 9.35054 2.5 9.66848 2.5 10C2.5 10.3315 2.6317 10.6495 2.86612 10.8839C3.10054 11.1183 3.41848 11.25 3.75 11.25H8.75V16.25C8.75 16.5815 8.8817 16.8995 9.11612 17.1339C9.35054 17.3683 9.66848 17.5 10 17.5C10.3315 17.5 10.6495 17.3683 10.8839 17.1339C11.1183 16.8995 11.25 16.5815 11.25 16.25V11.25H16.25C16.5815 11.25 16.8995 11.1183 17.1339 10.8839C17.3683 10.6495 17.5 10.3315 17.5 10C17.5 9.66848 17.3683 9.35054 17.1339 9.11612C16.8995 8.8817 16.5815 8.75 16.25 8.75H11.25V3.75C11.25 3.41848 11.1183 3.10054 10.8839 2.86612C10.6495 2.6317 10.3315 2.5 10 2.5Z" fill="black"/>
</g>
</svg>
