<svg width="74" height="75" viewBox="0 0 74 75" fill="none" xmlns="http://www.w3.org/2000/svg">
<rect y="0.795898" width="74" height="74" rx="37" fill="#EE990A" fill-opacity="0.05"/>
<path d="M45.7552 38.6045C40.4338 38.6045 36.1057 42.9091 36.1057 48.2007C36.1057 53.4915 40.4338 57.7961 45.7552 57.7961C51.0767 57.7961 55.4062 53.4915 55.4062 48.2007C55.4062 42.9091 51.0767 38.6045 45.7552 38.6045ZM38.9789 48.2007C38.9789 44.4848 42.0191 41.4616 45.7552 41.4616C49.4927 41.4616 52.533 44.4848 52.533 48.2007C52.533 51.9165 49.4927 54.939 45.7552 54.939C42.0191 54.939 38.9789 51.9165 38.9789 48.2007Z" fill="#EE990A"/>
<path d="M25.0867 53.4106H32.3274C33.1215 53.4106 33.7641 52.7709 33.7641 51.982C33.7641 51.1931 33.1215 50.5534 32.3274 50.5534H25.0867C23.0903 50.5534 21.4671 48.9316 21.4671 46.9387V31.9477H48.1164V34.853C48.1164 35.642 48.7589 36.2816 49.553 36.2816C50.3471 36.2816 50.9897 35.642 50.9897 34.853V27.6529C50.9897 24.085 48.0757 21.1818 44.4953 21.1818H42.7795V19.2245C42.7795 18.4355 42.137 17.7959 41.3429 17.7959C40.5488 17.7959 39.9062 18.4355 39.9062 19.2245V21.1818H29.6744V19.2245C29.6744 18.4355 29.0319 17.7959 28.2378 17.7959C27.4437 17.7959 26.8012 18.4355 26.8012 19.2245V21.1818H25.0867C21.5064 21.1818 18.5938 24.085 18.5938 27.6529V46.9387C18.5938 50.5074 21.5064 53.4106 25.0867 53.4106ZM25.0867 24.0389H44.4953C46.4918 24.0389 48.1164 25.66 48.1164 27.6529V29.0906H21.4671V27.6529C21.4671 25.66 23.0903 24.0389 25.0867 24.0389Z" fill="#EE990A"/>
<path d="M34.8037 36.811C34.011 36.811 33.3741 37.4507 33.3741 38.2396C33.3741 39.0285 34.0251 39.6682 34.8177 39.6682C35.6118 39.6682 36.2544 39.0285 36.2544 38.2396C36.2544 37.4507 35.6118 36.811 34.8177 36.811H34.8037Z" fill="#EE990A"/>
<path d="M27.3876 36.811H27.3736C26.5809 36.811 25.944 37.4507 25.944 38.2396C25.944 39.0285 26.5949 39.6682 27.3876 39.6682C28.1817 39.6682 28.8243 39.0285 28.8243 38.2396C28.8243 37.4507 28.1817 36.811 27.3876 36.811Z" fill="#EE990A"/>
<path d="M27.3876 42.8315H27.3736C26.5809 42.8315 25.944 43.4712 25.944 44.2601C25.944 45.049 26.5949 45.6887 27.3876 45.6887C28.1817 45.6887 28.8243 45.049 28.8243 44.2601C28.8243 43.4712 28.1817 42.8315 27.3876 42.8315Z" fill="#EE990A"/>
<path d="M46.3161 44.9468C45.4887 44.945 44.6916 45.2586 44.0872 45.8238C43.4828 46.3889 43.1164 47.1631 43.0626 47.9888L42.8945 47.8153C42.8439 47.7647 42.7839 47.7246 42.7179 47.6973C42.6518 47.6699 42.581 47.6558 42.5095 47.6558C42.438 47.6558 42.3672 47.6699 42.3011 47.6973C42.2351 47.7246 42.1751 47.7647 42.1245 47.8153C42.0739 47.8659 42.0338 47.9259 42.0065 47.9919C41.9791 48.058 41.965 48.1288 41.965 48.2003C41.965 48.2718 41.9791 48.3426 42.0065 48.4087C42.0338 48.4747 42.0739 48.5347 42.1245 48.5853L43.209 49.6698C43.2594 49.7206 43.3194 49.761 43.3855 49.7885C43.4515 49.816 43.5224 49.8302 43.594 49.8302C43.6656 49.8302 43.7365 49.816 43.8025 49.7885C43.8686 49.761 43.9286 49.7206 43.979 49.6698L45.0635 48.5853C45.1656 48.4832 45.223 48.3447 45.223 48.2003C45.223 48.0559 45.1656 47.9174 45.0635 47.8153C44.9614 47.7132 44.8229 47.6558 44.6785 47.6558C44.5341 47.6558 44.3956 47.7132 44.2935 47.8153L44.1634 47.9509C44.2206 47.4977 44.4195 47.0743 44.7316 46.7408C45.0437 46.4073 45.4531 46.1809 45.9014 46.0937C46.3498 46.0066 46.8142 46.0632 47.2284 46.2555C47.6427 46.4478 47.9857 46.7659 48.2086 47.1646C48.3893 47.4799 48.4847 47.8369 48.4851 48.2003C48.4851 48.7756 48.2566 49.3273 47.8498 49.734C47.4431 50.1408 46.8914 50.3693 46.3161 50.3693C45.9537 50.3722 45.5967 50.2806 45.2804 50.1036C45.2177 50.068 45.1487 50.0451 45.0772 50.0362C45.0056 50.0273 44.9331 50.0325 44.8636 50.0517C44.7941 50.0708 44.7291 50.1034 44.6722 50.1477C44.6153 50.192 44.5677 50.247 44.5321 50.3097C44.4965 50.3723 44.4736 50.4414 44.4647 50.5129C44.4558 50.5844 44.461 50.657 44.4802 50.7265C44.4993 50.796 44.5319 50.861 44.5762 50.9179C44.6205 50.9748 44.6755 51.0224 44.7382 51.058C45.1726 51.2944 45.6553 51.4287 46.1494 51.4506C46.6435 51.4724 47.1362 51.3814 47.5898 51.1843C48.0435 50.9872 48.4462 50.6892 48.7675 50.3131C49.0887 49.937 49.3199 49.4925 49.4436 49.0136C49.5672 48.5347 49.5801 48.0339 49.4811 47.5493C49.3821 47.0647 49.174 46.609 48.8724 46.2169C48.5709 45.8248 48.184 45.5066 47.741 45.2865C47.298 45.0664 46.8107 44.9502 46.3161 44.9468Z" fill="#EE990A" stroke="#EE990A" stroke-width="0.5"/>
</svg>
