<svg width="24" height="24" viewBox="0 0 24 24" fill="none" xmlns="http://www.w3.org/2000/svg">
<g id="Iconsax/Outline/setting4">
<path id="Vector" d="M22 7.25H16C15.59 7.25 15.25 6.91 15.25 6.5C15.25 6.09 15.59 5.75 16 5.75H22C22.41 5.75 22.75 6.09 22.75 6.5C22.75 6.91 22.41 7.25 22 7.25ZM6 7.25H2C1.59 7.25 1.25 6.91 1.25 6.5C1.25 6.09 1.59 5.75 2 5.75H6C6.41 5.75 6.75 6.09 6.75 6.5C6.75 6.91 6.41 7.25 6 7.25Z" fill="#EE990A"/>
<path id="Vector_2" d="M10 10.75C8.87364 10.7474 7.79417 10.2987 6.99771 9.50229C6.20126 8.70583 5.75264 7.62636 5.75 6.5C5.75264 5.37364 6.20126 4.29417 6.99771 3.49771C7.79417 2.70126 8.87364 2.25264 10 2.25C11.1264 2.25264 12.2058 2.70126 13.0023 3.49771C13.7987 4.29417 14.2474 5.37364 14.25 6.5C14.2474 7.62636 13.7987 8.70583 13.0023 9.50229C12.2058 10.2987 11.1264 10.7474 10 10.75ZM10 3.75C8.48 3.75 7.25 4.98 7.25 6.5C7.25 8.02 8.48 9.25 10 9.25C11.52 9.25 12.75 8.02 12.75 6.5C12.75 4.98 11.52 3.75 10 3.75ZM22 18.25H18C17.59 18.25 17.25 17.91 17.25 17.5C17.25 17.09 17.59 16.75 18 16.75H22C22.41 16.75 22.75 17.09 22.75 17.5C22.75 17.91 22.41 18.25 22 18.25ZM8 18.25H2C1.59 18.25 1.25 17.91 1.25 17.5C1.25 17.09 1.59 16.75 2 16.75H8C8.41 16.75 8.75 17.09 8.75 17.5C8.75 17.91 8.41 18.25 8 18.25Z" fill="#EE990A"/>
<path id="Vector_3" d="M14 21.75C12.8736 21.7474 11.7942 21.2987 10.9977 20.5023C10.2013 19.7058 9.75264 18.6264 9.75 17.5C9.75264 16.3736 10.2013 15.2942 10.9977 14.4977C11.7942 13.7013 12.8736 13.2526 14 13.25C15.1264 13.2526 16.2058 13.7013 17.0023 14.4977C17.7987 15.2942 18.2474 16.3736 18.25 17.5C18.2474 18.6264 17.7987 19.7058 17.0023 20.5023C16.2058 21.2987 15.1264 21.7474 14 21.75ZM14 14.75C12.48 14.75 11.25 15.98 11.25 17.5C11.25 19.02 12.48 20.25 14 20.25C15.52 20.25 16.75 19.02 16.75 17.5C16.75 15.98 15.52 14.75 14 14.75Z" fill="#EE990A"/>
</g>
</svg>
