<svg width="29" height="42" viewBox="0 0 29 42" fill="none" xmlns="http://www.w3.org/2000/svg">
<g id="Group 6">
<path id="Vector" d="M20.2381 9.45667C20.4569 9.71928 20.435 10.5071 20.5882 10.8573C20.8124 11.4296 21.0909 11.9792 21.4198 12.4985C20.7674 12.1778 20.2429 11.6456 19.9317 10.9886C19.9735 11.591 20.114 12.1824 20.3475 12.7392C20.4877 13.0065 20.5837 13.2948 20.6319 13.5927C19.9389 12.8701 19.4287 11.9922 19.1439 11.0323C19.1938 11.6264 19.334 12.2093 19.5597 12.7611C19.1921 12.4941 18.9168 12.1194 18.7719 11.6889C18.669 11.4639 18.5883 11.2293 18.5311 10.9886V10.7697C18.5479 10.5616 18.6071 10.3592 18.7049 10.1748C18.8027 9.9904 18.9372 9.82796 19.1001 9.69743C19.2935 9.53819 19.5167 9.41914 19.7566 9.34728C19.8186 9.31951 19.8857 9.30514 19.9536 9.30514C20.0214 9.30514 20.0886 9.31951 20.1505 9.34728" fill="#EE990A"/>
<path id="Vector_2" d="M15.4036 5.99924C15.3488 6.11976 15.2749 6.2306 15.1847 6.32749C15.0762 6.47198 14.9381 6.59163 14.7796 6.67844C14.621 6.76524 14.4458 6.81721 14.2656 6.83084H14.0249H13.5215C13.0735 6.77693 12.6532 6.58584 12.318 6.28374C12.9037 6.39345 13.5048 6.39345 14.0905 6.28374C13.0972 6.22005 12.1349 5.91183 11.2894 5.3865C11.5876 5.35308 11.8885 5.35308 12.1867 5.3865C12.7808 5.48487 13.387 5.48487 13.9812 5.3865C13.274 5.21509 12.6432 4.8151 12.1867 4.24857C12.7617 4.46239 13.355 4.62353 13.9592 4.73001C14.3094 4.73001 14.9659 4.6206 15.316 4.73001C15.7318 4.94885 15.4692 5.58346 15.316 5.86795" fill="#EE990A"/>
<path id="Vector_3" d="M24.4179 3.3513C24.3442 4.49494 23.9829 5.60145 23.3675 6.56821C22.9959 7.15839 22.5552 7.70202 22.0545 8.18759C21.6311 8.58361 21.1518 8.91542 20.632 9.17238C20.519 9.04004 20.3692 8.94434 20.2016 8.89757C20.034 8.85079 19.8562 8.855 19.691 8.90972C19.3706 8.98379 19.0759 9.14254 18.8376 9.36933C18.571 9.57028 18.3618 9.83781 18.2312 10.1451C18.1006 10.4524 18.0531 10.7886 18.0935 11.12C18.0811 11.2437 18.0811 11.3684 18.0935 11.4921C17.9692 11.7517 17.9047 12.0358 17.9047 12.3237C17.9047 12.6115 17.9692 12.8956 18.0935 13.1552C18.2577 13.4538 18.5208 13.686 18.8376 13.8117C19.3628 14.0743 20.8072 14.9059 21.026 14.0087C21.0478 13.71 21.0478 13.4101 21.026 13.1114V12.9801C21.0499 12.9685 21.076 12.9625 21.1025 12.9625C21.1291 12.9625 21.1553 12.9685 21.1791 12.9801C21.2608 13.0074 21.3355 13.0522 21.398 13.1114H21.5293L21.6387 13.2427C21.6482 13.2762 21.6649 13.3073 21.6876 13.3338C21.7102 13.3602 21.7384 13.3814 21.77 13.3959C21.8794 13.3959 21.967 13.3959 21.9889 13.199C22.0108 13.002 21.9888 12.7175 22.142 12.4987C22.1991 12.3142 22.3142 12.153 22.4703 12.0392C22.4867 12.0205 22.5069 12.0056 22.5296 11.9953C22.5522 11.9851 22.5768 11.9798 22.6016 11.9798C22.6265 11.9798 22.651 11.9851 22.6736 11.9953C22.6963 12.0056 22.7165 12.0205 22.7329 12.0392C22.7765 12.2041 22.7765 12.3775 22.7329 12.5424C22.7116 12.6287 22.7116 12.7189 22.7329 12.8051C22.7329 13.199 23.1924 13.199 23.4331 13.0677C23.6739 12.9364 23.8927 12.7394 24.1991 12.7832C24.2733 12.7824 24.3453 12.8086 24.4016 12.8569C24.458 12.9052 24.4949 12.9723 24.5055 13.0458C24.5055 13.2209 24.396 13.3084 24.2647 13.3959C23.9377 13.6574 23.6306 13.9426 23.3457 14.2494C23.315 14.273 23.2894 14.3027 23.2706 14.3366C23.2518 14.3705 23.2401 14.4078 23.2362 14.4464C23.2362 14.5558 23.3894 14.5995 23.4988 14.5995C23.6082 14.5995 23.8052 14.5995 23.9146 14.5995C23.9308 14.6376 23.9392 14.6786 23.9392 14.7199C23.9392 14.7613 23.9308 14.8022 23.9146 14.8403C23.8565 15.0192 23.7309 15.1684 23.5644 15.2561C22.371 15.8348 21.0792 16.1837 19.7567 16.2846C19.2372 16.3938 18.7006 16.3938 18.1811 16.2846C17.8966 16.2846 17.2401 15.9563 17.2182 15.5843C17.3233 16.5855 17.574 17.566 17.9622 18.4948C18.435 19.6626 19.0291 20.7775 19.7348 21.8212C20.0994 22.3791 20.5094 22.9061 20.9603 23.3968C21.2728 23.699 21.6015 23.9839 21.9451 24.2503C21.9615 24.2689 21.9817 24.2838 22.0044 24.2941C22.027 24.3043 22.0515 24.3096 22.0764 24.3096C22.1012 24.3096 22.1258 24.3043 22.1484 24.2941C22.1711 24.2838 22.1912 24.2689 22.2077 24.2503C22.5359 23.4885 23.0562 22.8249 23.7176 22.3245C23.8927 22.1932 24.5274 21.9525 24.1554 21.6461C23.7833 21.3397 23.28 21.6461 23.2144 21.3397C22.9736 20.7708 23.7615 20.727 24.1773 20.6832C24.1899 20.7028 24.2067 20.7193 24.2267 20.7314C24.2466 20.7435 24.269 20.7509 24.2923 20.753C24.3155 20.7551 24.3389 20.7519 24.3606 20.7436C24.3824 20.7353 24.402 20.7221 24.4179 20.7051C24.3085 20.2893 23.3019 19.7203 23.5864 19.217C23.8708 18.7137 24.4398 19.8517 24.8994 19.9173C25.3589 19.983 25.2057 19.9173 25.2057 19.6766C25.2388 19.2541 25.2388 18.8298 25.2057 18.4073C25.2057 18.2323 25.3152 17.9477 25.534 17.9696C26.103 17.9696 25.9279 18.9544 26.0811 19.5453C26.0927 19.5818 26.1122 19.6154 26.1382 19.6436C26.1641 19.6718 26.1959 19.694 26.2314 19.7086C26.2669 19.7232 26.3051 19.7299 26.3434 19.7281C26.3817 19.7264 26.4191 19.7162 26.4531 19.6985C26.8908 19.4577 27.3503 18.6043 27.8099 18.8888C28.2695 19.1733 27.8099 19.589 27.6349 19.8954C27.4598 20.2018 26.8033 20.8145 27.3504 20.9458H27.5473C27.7931 20.8472 28.0675 20.8472 28.3133 20.9458C28.554 21.0552 28.4664 21.2741 28.3133 21.4054C26.542 22.4247 25.1978 24.0486 24.5273 25.9791C24.2866 27.2075 24.2866 28.4709 24.5273 29.6993C24.9201 32.3353 24.6184 35.0281 23.652 37.5118C20.7633 43.5955 11.3753 41.6478 7.83009 37.3805C5.64171 34.645 5.24776 31.078 4.56936 27.7298C4.47945 26.8672 4.21131 26.0328 3.78185 25.2793C3.35239 24.5259 2.77102 23.8699 2.07465 23.353C1.70263 23.1342 -0.113716 22.1713 0.783518 21.6242C1.13554 21.4308 1.53071 21.3293 1.9324 21.3293C2.33409 21.3293 2.72926 21.4308 3.08129 21.6242C6.77964 23.5281 7.45802 28.1894 8.88047 31.6689C10.3029 35.1484 14.4608 38.5842 18.0935 36.3301C19.9317 35.1922 19.2096 32.8287 17.7434 31.7345C17.4808 31.5595 16.6711 31.2749 16.5836 30.9467C16.8462 31.9971 16.9337 33.1351 15.7738 33.5508C15.2267 33.7697 13.0384 34.1417 12.6007 33.5508C11.8129 32.7193 14.5483 32.6099 13.1697 31.8658C12.732 31.4719 11.3534 31.2093 11.9223 30.4434C12.6007 30.0495 14.2639 32.0628 13.6949 30.2245C13.1259 28.3863 14.4608 28.8459 14.7016 30.2245C14.6804 30.0059 14.7047 29.7852 14.7727 29.5763C14.8407 29.3675 14.951 29.1748 15.0968 29.0105C15.2427 28.8462 15.4208 28.7137 15.6201 28.6214C15.8194 28.5291 16.0357 28.4788 16.2553 28.4738C11.8785 25.0381 7.30483 17.6633 10.5874 11.2295C10.0819 11.4183 9.53614 11.4732 9.00315 11.3888C8.47016 11.3045 7.96808 11.0837 7.54559 10.748C7.17494 10.4824 6.83699 10.1739 6.53889 9.82887C6.30986 9.56007 6.11169 9.26647 5.94805 8.95353C5.83863 8.77846 5.5323 8.45017 5.64171 8.23133C5.75113 8.01249 6.4514 8.84408 6.5827 8.23133C6.54971 8.00149 6.49847 7.77465 6.4295 7.55294C6.38447 7.29962 6.38447 7.04039 6.4295 6.78706C6.53892 6.21808 6.93282 6.21808 7.10789 6.78706C7.28296 7.35604 7.10792 7.44352 7.41429 7.68424C7.72067 7.92496 7.85197 7.22471 7.83009 7.02775C7.80821 6.8308 7.83003 6.30562 8.11452 6.23997C8.39901 6.17432 8.59599 6.984 8.61787 7.2466C8.63976 7.50921 8.61784 7.70616 8.79291 7.85934C8.96798 8.01253 9.23065 7.70617 9.40572 7.6624C9.58079 7.61863 9.66827 7.66241 9.69016 7.88125C9.68974 8.09138 9.61187 8.29393 9.47137 8.45018C9.47137 8.58148 9.20877 8.77844 9.47137 8.93163C10.3905 9.65379 12.6226 8.0125 13.3448 7.55294L13.7387 7.29035C14.0074 7.32566 14.2796 7.32566 14.5484 7.29035C15.0368 7.23576 15.4845 6.99228 15.7957 6.61196C15.9153 6.48369 16.0115 6.33555 16.0802 6.17425C16.6492 5.0363 16.1896 4.55491 15.8614 4.37984H15.752C16.0805 3.71541 16.5252 3.1151 17.065 2.60726L17.6996 2.082C18.8836 1.224 20.2884 0.722807 21.7481 0.637666C22.1488 0.61698 22.5494 0.678107 22.9257 0.817315C23.3019 0.956522 23.6458 1.17095 23.9365 1.44742C24.164 1.70635 24.3373 2.0082 24.4463 2.33518C24.5553 2.66216 24.5978 3.00766 24.5711 3.3513" fill="#EE990A"/>
</g>
</svg>
