<svg width="20" height="20" viewBox="0 0 20 20" fill="none" xmlns="http://www.w3.org/2000/svg">
<path d="M6.45829 12.4998C6.45829 12.1547 6.17847 11.8748 5.83329 11.8748C5.48811 11.8748 5.20829 12.1547 5.20829 12.4998V14.9998C5.20829 15.345 5.48812 15.6248 5.83329 15.6248C6.17847 15.6248 6.45829 15.345 6.45829 14.9998V12.4998Z" fill="#201751"/>
<path d="M9.99996 9.37484C10.3451 9.37484 10.625 9.65466 10.625 9.99984V14.9998C10.625 15.345 10.3451 15.6248 9.99996 15.6248C9.65478 15.6248 9.37496 15.345 9.37496 14.9998V9.99984C9.37496 9.65466 9.65478 9.37484 9.99996 9.37484Z" fill="#201751"/>
<path d="M14.7916 7.49984C14.7916 7.15466 14.5118 6.87484 14.1666 6.87484C13.8214 6.87484 13.5416 7.15466 13.5416 7.49984V14.9998C13.5416 15.345 13.8214 15.6248 14.1666 15.6248C14.5118 15.6248 14.7916 15.345 14.7916 14.9998V7.49984Z" fill="#201751"/>
<path fill-rule="evenodd" clip-rule="evenodd" d="M9.95214 1.0415C8.02848 1.04149 6.52095 1.04148 5.34471 1.19963C4.14077 1.36149 3.19075 1.69928 2.44507 2.44495C1.6994 3.19063 1.36161 4.14065 1.19975 5.34459C1.04161 6.52083 1.04162 8.02836 1.04163 9.95202V10.0477C1.04162 11.9713 1.04161 13.4788 1.19975 14.6551C1.36161 15.859 1.6994 16.8091 2.44507 17.5547C3.19075 18.3004 4.14077 18.6382 5.34471 18.8C6.52095 18.9582 8.02849 18.9582 9.95215 18.9582H10.0478C11.9714 18.9582 13.479 18.9582 14.6552 18.8C15.8592 18.6382 16.8092 18.3004 17.5548 17.5547C18.3005 16.8091 18.6383 15.859 18.8002 14.6551C18.9583 13.4788 18.9583 11.9713 18.9583 10.0476V9.95203C18.9583 8.02836 18.9583 6.52083 18.8002 5.34459C18.6383 4.14065 18.3005 3.19063 17.5548 2.44495C16.8092 1.69928 15.8592 1.36149 14.6552 1.19963C13.479 1.04148 11.9714 1.04149 10.0478 1.0415H9.95214ZM3.32896 3.32883C3.80367 2.85412 4.44594 2.58171 5.51127 2.43848C6.59459 2.29283 8.01811 2.2915 9.99996 2.2915C11.9818 2.2915 13.4053 2.29283 14.4886 2.43848C15.554 2.58171 16.1962 2.85412 16.671 3.32883C17.1457 3.80355 17.4181 4.44582 17.5613 5.51115C17.707 6.59447 17.7083 8.01798 17.7083 9.99984C17.7083 11.9817 17.707 13.4052 17.5613 14.4885C17.4181 15.5539 17.1457 16.1961 16.671 16.6708C16.1962 17.1456 15.554 17.418 14.4886 17.5612C13.4053 17.7068 11.9818 17.7082 9.99996 17.7082C8.01811 17.7082 6.59459 17.7068 5.51127 17.5612C4.44594 17.418 3.80367 17.1456 3.32896 16.6708C2.85424 16.1961 2.58183 15.5539 2.4386 14.4885C2.29295 13.4052 2.29163 11.9817 2.29163 9.99984C2.29163 8.01798 2.29295 6.59447 2.4386 5.51115C2.58183 4.44582 2.85424 3.80355 3.32896 3.32883Z" fill="#201751"/>
</svg>
